# xmcd
#
# Track frame offsets:
#	150
#	17629
#	35045
#
# Disc length: 696 seconds
#
# Revision: 0
# Processed by: cddbd v1.5.1PL0 Copyright (c) Steve Scherf et al.
# Submitted via: dBpowerAMP V4.0
#
DISCID=1d02b603
DTITLE=Chely Wright - Single
DYEAR=1998
DGENRE=Country
TTITLE0=I Already Do
TTITLE1=I Already Do
TTITLE2=I Already Do
EXTD=
EXTT0=
EXTT1=
EXTT2=
PLAYORDER=
